# xmcd
#
# Track frame offsets:
#	150
#	14452
#	30030
#	50382
#	65872
#	81925
#	102052
#	118872
#	136825
#	157640
#	176057
#	196237
#
# Disc length: 2847 seconds
#
# Revision: 1
# Processed by: cddbd v1.5.2PL0 Copyright (c) Steve Scherf et al.
# Submitted via: audiograbber 1.83.01
#
DISCID=910b1d0c
DTITLE=Panacea - Ink Is My Drink
DYEAR=2006
DGENRE=Hip-Hop
TTITLE0=Trip of the Century
TTITLE1=Invisible Seas
TTITLE2=Place On Earth
TTITLE3=Steel Kites
TTITLE4=Coulda Woulda Shoulda
TTITLE5=Reel Me In
TTITLE6=PULSE
TTITLE7=Work of Art
TTITLE8=These Worlds
TTITLE9=Ecosphere
TTITLE10=Burning Bush
TTITLE11=Starlite
EXTD=www.RapMusicGuide.com
EXTT0=
EXTT1=
EXTT2=
EXTT3=
EXTT4=
EXTT5=
EXTT6=
EXTT7=
EXTT8=
EXTT9=
EXTT10=
EXTT11=
PLAYORDER=
